# xmcd
#
# Track frame offsets: 
#        182
#        15650
#        30822
#        48735
#        66670
#        93275
#        110557
#        124517
#        150847
#        168617
#        186530
#        204865
#        223735
#        241130
#        257115
#        279392
#
# Disc length: 4038 seconds
#
# Revision: 1
# Processed by: cddbd v1.5.2PL0 Copyright (c) Steve Scherf et al.
# Submitted via: ExactAudioCopy v1.3
#
DISCID=dc0fc410
DTITLE=Various Artist - Unlimited Dance Vol.2 - Disc 2
DYEAR=1993
DGENRE=Dance
TTITLE0=Hugh K. - Shine On (radio mellow edit)
TTITLE1=Zentral - Que Idea
TTITLE2=T.P.F.F. - Nightlife (7" mix)
TTITLE3=Marcia Johnson - Got To Be Special (radio edit)
TTITLE4=Jinny - Feel The Rhythm (U.S.U.R.A. mix)
TTITLE5=Honey C. - Stop The Disease (dance mix edit)
TTITLE6=Jay Dee - Plastic Dreams
TTITLE7=Pocorn - Souljers Story
TTITLE8=Oscare - What's Going On (radio edit)
TTITLE9=Toney D. - Funk It Up (radio mix)
TTITLE10=Philippe Cataldo - Les Divas Du Dancing (banghra radio versio
TTITLE10=n)
TTITLE11=Le Boyfriend - Pump It Up
TTITLE12=Melissa - Band Of Gold (radio version)
TTITLE13=Hyperspace - Natural System (radio edit)
TTITLE14=American Force - Rock Sensation (ambiance mix)
TTITLE15=In God We Trust - Let My People Go
EXTD=
EXTT0=
EXTT1=
EXTT2=
EXTT3=
EXTT4=
EXTT5=
EXTT6=
EXTT7=
EXTT8=
EXTT9=
EXTT10=
EXTT11=
EXTT12=
EXTT13=
EXTT14=
EXTT15=
PLAYORDER=
